# xmcd
#
# Track frame offsets:
#	150
#	11695
#	24022
#	43387
#	56400
#	68340
#	83625
#	106967
#	120437
#	134382
#	147740
#	161375
#	174092
#	187782
#
# Disc length: 2677 seconds
#
# Revision: 5
# Processed by: cddbd v1.5.1PL0 Copyright (c) Steve Scherf et al.
# Submitted via: audiograbber 1.83.01
#
DISCID=a60a730e
DTITLE=Various Artist - Blues History Part 2 [3 of 4]
DYEAR=1989
DGENRE=Blues
TTITLE0=Howlin' Wolf - Howlin' For My Baby
TTITLE1=Buddy Guy - Mother-In-Law-Blues
TTITLE2=Koko Taylor - Insane Asylum
TTITLE3=J.B. Lenoir - If You Love Me
TTITLE4=Big Bill Broonzy and Washboard Sam - Never Never
TTITLE5=Etta James - Jump Into Love
TTITLE6=John Lee Hooker - The Waterfront
TTITLE7=Memphis Slim - Slim's Blues
TTITLE8=Lowell Fulson - Hung Down Head
TTITLE9=Little Walter - Teenage Beat
TTITLE10=Little Milton - Man Loves Two
TTITLE11=Muddy Waters - All Aboard
TTITLE12=Sonny Boy Williamson - Don't Lose Your Eye
TTITLE13=Howlin' Wolf - What A Woman
EXTD=
EXTT0=
EXTT1=
EXTT2=
EXTT3=
EXTT4=
EXTT5=
EXTT6=
EXTT7=
EXTT8=
EXTT9=
EXTT10=
EXTT11=
EXTT12=
EXTT13=
PLAYORDER=
